<?xml version="1.0" encoding="UTF-8"?>
<svg id="Livello_2" data-name="Livello 2" xmlns="http://www.w3.org/2000/svg" viewBox="0 0 15 20.89">
  <defs>
    <style>
      .cls-1 {
        fill: #1d1d1b;
      }
    </style>
  </defs>
  <g id="Layer_3" data-name="Layer 3">
    <polygon class="cls-1" points="11.52 0 11.52 7.91 11.52 9.83 11.51 9.83 11.51 0 9.51 0 9.51 9.83 5.5 9.83 5.5 0 3.49 0 0 0 0 20.89 3.49 20.89 3.49 19.06 3.49 12.95 3.49 12.95 3.49 20.89 5.5 20.89 5.5 12.95 9.51 12.95 9.51 20.89 11.51 20.89 11.51 12.95 11.52 12.95 11.52 19.06 11.51 19.06 11.51 20.89 15 20.89 15 0 11.52 0"/>
  </g>
</svg>