<svg xmlns="http://www.w3.org/2000/svg" viewBox="0 0 203.29 123.02"><defs><style>.cls-1,.cls-2,.cls-3,.cls-4,.cls-5,.cls-6,.cls-7{stroke:#000;stroke-miterlimit:10;}.cls-2{stroke-width:0.92px;}.cls-3{stroke-width:0.75px;}.cls-4{stroke-width:1.05px;}.cls-5{stroke-width:0.67px;}.cls-6{stroke-width:0.61px;}.cls-7{stroke-width:0.71px;}</style></defs><g id="Layer_2" data-name="Layer 2"><g id="Layer_1" data-name="Layer 1"><rect class="cls-1" x="7.83" y="52.41" width="12.09" height="69.52" transform="translate(18.8 -0.96) rotate(12.24)"/><rect class="cls-1" x="26.71" y="52.41" width="12.09" height="69.52" transform="translate(83.26 165.42) rotate(167.76)"/><rect class="cls-1" x="15.09" y="50.45" width="16.08" height="4.29"/><rect class="cls-2" x="70.82" y="10.95" width="29.78" height="39.5"/><rect class="cls-3" x="101.67" y="8.15" width="8.54" height="15.08" transform="translate(6.35 55.07) rotate(-30)"/><rect class="cls-3" x="61.29" y="8.15" width="8.54" height="15.08" transform="translate(114.49 62.06) rotate(-150)"/><polygon class="cls-4" points="143.38 8.33 135.13 24.23 135.13 31.04 161.18 31.04 161.18 26.79 150.19 8.33 143.38 8.33"/><circle class="cls-5" cx="146.54" cy="4.33" r="4"/><rect class="cls-5" x="186.17" y="46.47" width="4.93" height="16.78"/><rect class="cls-6" x="186.17" y="57.39" width="13.85" height="5.85"/><circle class="cls-5" cx="200.02" cy="60.32" r="2.92"/><polygon class="cls-7" points="116.41 80.23 103.31 120.8 150.53 120.8 137.43 80.23 116.41 80.23"/><rect x="116.16" y="76.17" width="21.57" height="4.06"/></g></g></svg>