<?xml version="1.0" encoding="UTF-8"?>
<svg id="Livello_2" data-name="Livello 2" xmlns="http://www.w3.org/2000/svg" viewBox="0 0 10.11 23.74">
  <defs>
    <style>
      .cls-1 {
        fill: #f39200;
        font-family: VikiRegular, Viki;
        font-size: 10px;
      }

      .cls-2 {
        fill: #1d1d1b;
      }
    </style>
  </defs>
  <g id="Layer_3" data-name="Layer 3">
    <path class="cls-2" d="m9.23,18.81c-1.38.09-2.82.18-4.29.24-1.47.08-2.98.13-4.49.15H.03s0-.43,0-.43c-.02-1.52-.04-3.05,0-4.57l.19-4.57c.14-3.05.08-6.09-.04-9.14V.25s.27-.01.27-.01C3.36.1,6.28.05,9.2,0h.49s.01.5.01.5c.07,3.1.03,6.24-.08,9.31-.09,3.08-.23,6.1-.39,9Zm-.07-.07c-.16-3.2-.3-6.26-.39-9.27-.11-3.02-.14-5.98-.08-8.96l.5.5c-2.92-.04-5.83-.09-8.75-.23l.27-.27c-.12,3.05-.18,6.09-.04,9.14l.19,4.57c.05,1.52.02,3.05,0,4.57l-.43-.43c1.41.02,2.81.07,4.26.15,1.44.06,2.92.16,4.45.24Z"/>
    <text class="cls-1" transform="translate(2.09 8.71)"><tspan x="0" y="0">VI</tspan><tspan x="0" y="7">KI</tspan></text>
  </g>
</svg>